<?xml version="1.0" standalone="no"?>
<!DOCTYPE svg PUBLIC "-//W3C//DTD SVG 20010904//EN"
 "http://www.w3.org/TR/2001/REC-SVG-20010904/DTD/svg10.dtd">
<svg version="1.0" xmlns="http://www.w3.org/2000/svg"
 width="1024.000000pt" height="1024.000000pt" viewBox="0 0 1024.000000 1024.000000"
 preserveAspectRatio="xMidYMid meet">

<g transform="translate(0.000000,1024.000000) scale(0.100000,-0.100000)"
fill="#000000" stroke="none">
<path d="M0 5120 l0 -5120 5120 0 5120 0 0 5120 0 5120 -5120 0 -5120 0 0
-5120z m5425 3554 c638 -69 1197 -295 1685 -684 130 -103 355 -328 437 -436
l62 -81 -58 23 c-165 67 -395 39 -581 -70 -83 -49 -192 -130 -268 -200 -34
-32 -62 -54 -62 -48 0 5 38 43 86 83 275 237 504 321 739 271 50 -11 92 -18
94 -16 10 9 -175 213 -309 339 -193 181 -441 351 -710 486 -357 179 -702 277
-1165 330 -129 14 -479 12 -617 -4 -60 -7 -108 -10 -108 -6 0 8 104 19 275 29
147 9 314 4 500 -16z m-910 -39 c-505 -87 -980 -279 -1410 -569 -528 -356
-962 -885 -1236 -1508 -58 -131 -139 -354 -139 -381 0 -6 42 29 93 78 97 95
200 188 142 129 -16 -17 -83 -81 -147 -143 l-117 -113 25 83 c89 291 258 640
452 932 243 367 577 703 937 944 383 256 848 450 1285 537 164 32 169 33 210
34 19 0 -23 -10 -95 -23z m877 -801 c227 -29 442 -96 658 -204 235 -118 387
-237 547 -427 l35 -43 -87 -92 c-503 -533 -794 -1302 -737 -1945 35 -382 154
-717 334 -935 39 -46 39 -47 16 -53 -79 -18 -175 -27 -339 -32 -892 -28 -1656
357 -2126 1073 -130 198 -217 408 -265 639 -30 148 -33 494 -4 649 92 503 428
963 862 1183 173 88 442 176 599 196 86 11 394 6 507 -9z m-2632 -954 c-8 -5
-19 -10 -25 -10 -5 0 -3 5 5 10 8 5 20 10 25 10 6 0 3 -5 -5 -10z m5 -90 c-14
-27 -28 -50 -30 -50 -3 0 6 23 20 50 14 28 28 50 30 50 3 0 -6 -22 -20 -50z
m-245 -25 c0 -2 -18 -14 -40 -25 -22 -11 -40 -18 -40 -15 0 2 17 13 38 24 42
23 42 23 42 16z m-90 -50 c0 -2 -10 -9 -22 -15 -22 -11 -22 -10 -4 4 21 17 26
19 26 11z m-50 -30 c0 -2 -10 -9 -22 -15 -22 -11 -22 -10 -4 4 21 17 26 19 26
11z m295 -65 c-14 -27 -28 -50 -30 -50 -3 0 6 23 20 50 14 28 28 50 30 50 3 0
-6 -22 -20 -50z m-440 -30 c-3 -5 -16 -15 -28 -21 -19 -9 -19 -8 3 10 28 23
34 26 25 11z m-70 -49 c-26 -24 -165 -131 -165 -126 0 6 162 135 169 135 3 0
1 -4 -4 -9z m408 -116 c-20 -41 -39 -73 -41 -71 -4 5 66 146 73 146 3 0 -12
-34 -32 -75z m-72 -152 c-11 -21 -20 -35 -21 -31 0 12 33 78 38 74 2 -2 -6
-21 -17 -43z m-30 -70 c-12 -20 -14 -14 -5 12 4 9 9 14 11 11 3 -2 0 -13 -6
-23z m-67 -187 c-3 -15 -8 -25 -11 -23 -2 3 -1 17 3 31 3 15 8 25 11 23 2 -3
1 -17 -3 -31z m-47 -178 c-3 -8 -6 -5 -6 6 -1 11 2 17 5 13 3 -3 4 -12 1 -19z
m-10 -50 c-3 -8 -6 -5 -6 6 -1 11 2 17 5 13 3 -3 4 -12 1 -19z m403 9 c0 -2
-25 -25 -56 -52 -31 -27 -55 -44 -53 -38 2 6 26 29 54 52 48 40 55 44 55 38z
m-413 -69 c-3 -7 -5 -2 -5 12 0 14 2 19 5 13 2 -7 2 -19 0 -25z m217 -114
l-76 -79 72 83 c40 45 75 81 77 79 1 -2 -31 -39 -73 -83z m193 64 c-3 -8 -6
-5 -6 6 -1 11 2 17 5 13 3 -3 4 -12 1 -19z m-420 -35 c-3 -10 -5 -4 -5 12 0
17 2 24 5 18 2 -7 2 -21 0 -30z m410 -40 c-3 -10 -5 -4 -5 12 0 17 2 24 5 18
2 -7 2 -21 0 -30z m-420 -180 c-2 -32 -3 -8 -3 52 0 61 1 87 3 58 2 -29 2 -78
0 -110z m410 85 c-2 -13 -4 -3 -4 22 0 25 2 35 4 23 2 -13 2 -33 0 -45z m-299
-43 c-28 -36 -54 -65 -56 -65 -5 0 6 14 61 83 21 26 41 47 43 47 3 0 -19 -29
-48 -65z m-58 -79 c0 -2 -8 -10 -17 -17 -16 -13 -17 -12 -4 4 13 16 21 21 21
13z m-36 -51 c-4 -8 -8 -15 -10 -15 -2 0 -4 7 -4 15 0 8 4 15 10 15 5 0 7 -7
4 -15z m393 -102 c-3 -10 -5 -4 -5 12 0 17 2 24 5 18 2 -7 2 -21 0 -30z m10
-80 c-3 -10 -5 -4 -5 12 0 17 2 24 5 18 2 -7 2 -21 0 -30z m10 -55 c-3 -8 -6
-5 -6 6 -1 11 2 17 5 13 3 -3 4 -12 1 -19z m10 -50 c-3 -8 -6 -5 -6 6 -1 11 2
17 5 13 3 -3 4 -12 1 -19z m10 -40 c-3 -8 -6 -5 -6 6 -1 11 2 17 5 13 3 -3 4
-12 1 -19z m137 -375 c9 -18 14 -33 12 -33 -6 0 -36 55 -36 66 0 11 5 3 24
-33z m35 -73 c11 -24 11 -24 -3 -6 -9 11 -16 24 -16 30 0 12 5 7 19 -24z m61
-101 c22 -35 30 -51 16 -35 -22 27 -77 118 -63 105 4 -3 25 -34 47 -70z m81
-116 c13 -16 12 -17 -3 -4 -17 13 -22 21 -14 21 2 0 10 -8 17 -17z m45 -55
l29 -33 -32 29 c-31 28 -38 36 -30 36 2 0 16 -15 33 -32z m84 -93 c19 -19 32
-35 29 -35 -3 0 -20 16 -39 35 -19 19 -32 35 -29 35 3 0 20 -16 39 -35z m3163
-190 c55 -27 93 -39 141 -42 l65 -6 72 -81 c149 -169 279 -358 364 -526 52
-103 127 -300 121 -316 -3 -8 -1 -14 3 -14 5 0 11 -6 14 -14 3 -8 -38 20 -91
61 -53 42 -151 111 -217 154 -118 76 -192 130 -135 96 127 -74 286 -181 370
-252 24 -20 46 -32 48 -26 4 13 -79 222 -125 315 -83 165 -235 380 -377 534
-52 55 -62 62 -96 62 -89 0 -244 74 -316 151 -21 23 -13 19 28 -14 31 -25 90
-62 131 -82z m-2923 -33 c0 -6 -76 56 -127 104 -26 25 -9 13 40 -27 48 -40 87
-74 87 -77z m100 -68 c0 -3 -20 9 -45 26 -25 17 -45 33 -45 36 0 3 20 -9 45
-26 25 -17 45 -33 45 -36z m115 -67 c16 -15 -48 20 -70 38 -11 9 -2 7 20 -6
22 -12 45 -26 50 -32z m80 -45 c-3 -3 -11 0 -18 7 -9 10 -8 11 6 5 10 -3 15
-9 12 -12z m40 -20 c-3 -3 -11 0 -18 7 -9 10 -8 11 6 5 10 -3 15 -9 12 -12z
m65 -22 c8 -5 11 -10 5 -10 -5 0 -17 5 -25 10 -8 5 -10 10 -5 10 6 0 17 -5 25
-10z m60 -25 c14 -8 21 -14 15 -14 -5 0 -21 6 -35 14 -14 8 -20 14 -15 14 6 0
21 -6 35 -14z m117 -41 c-3 -3 -12 -4 -19 -1 -8 3 -5 6 6 6 11 1 17 -2 13 -5z
m60 -20 c-3 -3 -12 -4 -19 -1 -8 3 -5 6 6 6 11 1 17 -2 13 -5z m58 -14 c13 -5
14 -9 5 -9 -8 0 -24 4 -35 9 -13 5 -14 9 -5 9 8 0 24 -4 35 -9z m142 -36 c-3
-3 -12 -4 -19 -1 -8 3 -5 6 6 6 11 1 17 -2 13 -5z m66 -11 c-7 -2 -21 -2 -30
0 -10 3 -4 5 12 5 17 0 24 -2 18 -5z m70 -10 c-7 -2 -21 -2 -30 0 -10 3 -4 5
12 5 17 0 24 -2 18 -5z m85 -10 c-10 -2 -26 -2 -35 0 -10 3 -2 5 17 5 19 0 27
-2 18 -5z m145 -10 c-18 -2 -48 -2 -65 0 -18 2 -4 4 32 4 36 0 50 -2 33 -4z
m92 -49 c-26 -20 -55 -36 -55 -30 0 5 63 46 70 46 3 -1 -4 -8 -15 -16z m705
12 c0 -2 -7 -7 -16 -10 -8 -3 -12 -2 -9 4 6 10 25 14 25 6z m-770 -51 c0 -2
-10 -9 -22 -15 -22 -11 -22 -10 -4 4 21 17 26 19 26 11z m-1642 -12 c-27 -2
-69 -2 -95 0 -27 2 -5 3 47 3 52 0 74 -1 48 -3z m-195 -10 c-7 -2 -21 -2 -30
0 -10 3 -4 5 12 5 17 0 24 -2 18 -5z m355 0 c-10 -2 -28 -2 -40 0 -13 2 -5 4
17 4 22 1 32 -1 23 -4z m-431 -9 c-3 -3 -12 -4 -19 -1 -8 3 -5 6 6 6 11 1 17
-2 13 -5z m510 0 c-3 -3 -12 -4 -19 -1 -8 3 -5 6 6 6 11 1 17 -2 13 -5z m56
-11 c-7 -2 -19 -2 -25 0 -7 3 -2 5 12 5 14 0 19 -2 13 -5z m1277 2 c0 -6 -117
-65 -127 -65 -4 1 21 16 57 35 72 38 70 37 70 30z m-1943 -11 c-3 -3 -12 -4
-19 -1 -8 3 -5 6 6 6 11 1 17 -2 13 -5z m720 0 c-3 -3 -12 -4 -19 -1 -8 3 -5
6 6 6 11 1 17 -2 13 -5z m113 -28 c41 -13 71 -24 65 -25 -5 0 -46 10 -90 24
-44 13 -73 24 -65 24 8 1 49 -10 90 -23z m-913 8 c-3 -3 -12 -4 -19 -1 -8 3
-5 6 6 6 11 1 17 -2 13 -5z m2648 -4 c-3 -5 -12 -10 -18 -10 -7 0 -6 4 3 10
19 12 23 12 15 0z m-40 -20 c-3 -5 -12 -10 -18 -10 -7 0 -6 4 3 10 19 12 23
12 15 0z m-1555 -32 c10 -6 7 -7 -10 -2 -14 3 -32 11 -40 16 -10 6 -7 7 10 2
14 -3 32 -11 40 -16z m60 -23 c14 -8 21 -14 15 -14 -5 0 -21 6 -35 14 -14 8
-20 14 -15 14 6 0 21 -6 35 -14z m660 -15 c0 -5 -8 -10 -17 -10 -15 0 -16 2
-3 10 19 12 20 12 20 0z m1127 -22 c-3 -7 -5 -2 -5 12 0 14 2 19 5 13 2 -7 2
-19 0 -25z m-1687 -8 c22 -11 40 -23 40 -25 0 -5 -79 32 -89 41 -11 10 14 2
49 -16z m647 4 c-3 -3 -12 -4 -19 -1 -8 3 -5 6 6 6 11 1 17 -2 13 -5z m2282
-143 c23 -79 41 -151 40 -160 0 -15 -88 283 -89 303 -1 26 13 -13 49 -143z
m-2236 132 c-7 -2 -19 -2 -25 0 -7 3 -2 5 12 5 14 0 19 -2 13 -5z m404 1 c-3
-3 -12 -4 -19 -1 -8 3 -5 6 6 6 11 1 17 -2 13 -5z m-344 -11 c-7 -2 -19 -2
-25 0 -7 3 -2 5 12 5 14 0 19 -2 13 -5z m290 0 c-7 -2 -19 -2 -25 0 -7 3 -2 5
12 5 14 0 19 -2 13 -5z m-105 -10 c-21 -2 -57 -2 -80 0 -24 2 -7 4 37 4 44 0
63 -2 43 -4z m759 -15 c-3 -8 -6 -5 -6 6 -1 11 2 17 5 13 3 -3 4 -12 1 -19z
m-1607 -14 c0 -2 -9 0 -20 6 -11 6 -20 13 -20 16 0 2 9 0 20 -6 11 -6 20 -13
20 -16z m67 -41 c64 -48 164 -139 138 -125 -11 5 -29 20 -40 32 -11 12 -47 43
-80 68 -70 53 -81 62 -74 62 3 0 28 -17 56 -37z m2010 0 c-3 -10 -5 -4 -5 12
0 17 2 24 5 18 2 -7 2 -21 0 -30z m104 -63 c23 -35 25 -38 5 -15 -14 17 -40
50 -57 75 -23 35 -25 38 -5 15 14 -16 40 -50 57 -75z m-4001 85 c0 -2 -13 -11
-30 -20 -38 -19 -40 -11 -2 9 31 17 32 18 32 11z m3457 -77 c-3 -8 -6 -5 -6 6
-1 11 2 17 5 13 3 -3 4 -12 1 -19z m430 -25 c-3 -10 -5 -2 -5 17 0 19 2 27 5
18 2 -10 2 -26 0 -35z m-4117 -37 c0 -2 -8 -10 -17 -17 -16 -13 -17 -12 -4 4
13 16 21 21 21 13z m4107 -33 c-3 -10 -5 -4 -5 12 0 17 2 24 5 18 2 -7 2 -21
0 -30z m208 -13 c21 -22 37 -40 34 -40 -3 0 -23 18 -44 40 -21 22 -37 40 -34
40 3 0 23 -18 44 -40z m-4365 4 c-8 -8 -23 -20 -34 -25 -13 -7 -9 -1 9 15 34
29 43 33 25 10z m2422 -86 c22 -27 38 -48 35 -48 -2 0 -31 30 -63 68 -32 37
-48 58 -35 47 13 -11 41 -41 63 -67z m1725 5 c-3 -10 -5 -2 -5 17 0 19 2 27 5
18 2 -10 2 -26 0 -35z m-327 17 c6 -11 8 -20 6 -20 -3 0 -10 9 -16 20 -6 11
-8 20 -6 20 3 0 10 -9 16 -20z m-3900 7 c0 -2 -12 -14 -27 -28 l-28 -24 24 28
c23 25 31 32 31 24z m4611 -119 c25 -24 29 -30 10 -13 -60 50 -131 119 -131
127 0 4 17 -10 38 -32 20 -21 58 -58 83 -82z m456 90 c-3 -8 -6 -5 -6 6 -1 11
2 17 5 13 3 -3 4 -12 1 -19z m-1077 -105 c19 -23 55 -66 79 -95 l43 -53 -51
55 c-55 58 -132 155 -145 180 -4 8 3 2 16 -15 13 -16 39 -49 58 -72z m-4050
84 c0 -1 -30 -32 -67 -67 l-68 -65 65 68 c60 62 70 72 70 64z m5148 -67 c0
-22 -1 -22 -8 5 -4 17 -8 39 -8 50 0 16 2 15 8 -5 4 -14 8 -36 8 -50z m-871
23 c-3 -10 -5 -4 -5 12 0 17 2 24 5 18 2 -7 2 -21 0 -30z m-1617 -63 c12 -16
19 -30 16 -30 -2 0 -14 14 -26 30 -12 17 -19 30 -16 30 2 0 14 -13 26 -30z
m1607 -27 c-3 -10 -5 -2 -5 17 0 19 2 27 5 18 2 -10 2 -26 0 -35z m890 5 c-3
-7 -5 -2 -5 12 0 14 2 19 5 13 2 -7 2 -19 0 -25z m-402 -8 c10 -11 16 -20 13
-20 -3 0 -13 9 -23 20 -10 11 -16 20 -13 20 3 0 13 -9 23 -20z m433 -177 c4
-46 7 -83 5 -83 -11 0 -113 43 -110 46 2 2 20 -3 40 -11 66 -27 63 -40 42 170
l-4 50 9 -45 c5 -25 13 -82 18 -127z m-387 140 c13 -16 12 -17 -3 -4 -10 7
-18 15 -18 17 0 8 8 3 21 -13z m-544 -45 c-2 -13 -4 -5 -4 17 -1 22 1 32 4 23
2 -10 2 -28 0 -40z m-1537 22 c6 -11 8 -20 6 -20 -3 0 -10 9 -16 20 -6 11 -8
20 -6 20 3 0 10 -9 16 -20z m-2892 -15 c-3 -3 -9 2 -12 12 -6 14 -5 15 5 6 7
-7 10 -15 7 -18z m5052 -21 c0 -3 -13 4 -30 16 -16 12 -30 24 -30 26 0 3 14
-4 30 -16 17 -12 30 -24 30 -26z m-2130 -14 c6 -11 8 -20 6 -20 -3 0 -10 9
-16 20 -6 11 -8 20 -6 20 3 0 10 -9 16 -20z m2195 -25 l20 -16 -20 10 c-11 5
-29 17 -40 26 l-20 16 20 -10 c11 -5 29 -17 40 -26z m-695 -17 c0 -13 -5 -9
-31 19 l-24 26 27 -19 c15 -10 28 -22 28 -26z m-1465 -18 c9 -16 13 -30 11
-30 -3 0 -12 14 -21 30 -9 17 -13 30 -11 30 3 0 12 -13 21 -30z m2265 -25 c0
-3 -18 4 -40 15 -22 11 -40 23 -40 25 0 3 18 -4 40 -15 22 -11 40 -23 40 -25z
m-2225 -46 c9 -17 15 -33 13 -35 -3 -2 -12 12 -21 31 -21 43 -13 47 8 4z m54
-124 c0 -5 -6 1 -14 15 -8 14 -14 30 -14 35 0 6 6 -1 14 -15 8 -14 14 -29 14
-35z m-2848 8 c13 -16 12 -17 -3 -4 -10 7 -18 15 -18 17 0 8 8 3 21 -13z m34
-43 c10 -11 16 -20 13 -20 -3 0 -13 9 -23 20 -10 11 -16 20 -13 20 3 0 13 -9
23 -20z m2845 -35 c0 -5 -5 -3 -10 5 -5 8 -10 20 -10 25 0 6 5 3 10 -5 5 -8
10 -19 10 -25z m-1810 -25 c-23 -27 -44 -50 -47 -50 -3 0 14 23 37 50 23 28
44 50 47 50 3 0 -14 -22 -37 -50z m-949 -47 c13 -16 12 -17 -3 -4 -10 7 -18
15 -18 17 0 8 8 3 21 -13z m2799 -38 c0 -5 -5 -3 -10 5 -5 8 -10 20 -10 25 0
6 5 3 10 -5 5 -8 10 -19 10 -25z m-2749 -22 c13 -16 12 -17 -3 -4 -10 7 -18
15 -18 17 0 8 8 3 21 -13z m1053 -30 c9 -18 14 -33 12 -33 -6 0 -36 55 -36 66
0 11 5 3 24 -33z m886 34 c0 -1 -33 -34 -72 -72 l-73 -70 70 73 c64 67 75 77
75 69z m-1140 -10 c0 -2 -10 -12 -22 -23 l-23 -19 19 23 c18 21 26 27 26 19z
m1215 -37 c10 -11 16 -20 13 -20 -3 0 -13 9 -23 20 -10 11 -16 20 -13 20 3 0
13 -9 23 -20z m-1949 -32 l29 -33 -32 29 c-31 28 -38 36 -30 36 2 0 16 -15 33
-32z m674 19 c0 -2 -15 -16 -32 -33 l-33 -29 29 33 c28 30 36 37 36 29z m2037
-29 c-3 -8 -6 -5 -6 6 -1 11 2 17 5 13 3 -3 4 -12 1 -19z m-672 -58 c33 -33
57 -60 54 -60 -2 0 -31 27 -64 60 -33 33 -57 60 -54 60 2 0 31 -27 64 -60z
m-995 20 c12 -16 19 -30 16 -30 -2 0 -14 14 -26 30 -12 17 -19 30 -16 30 2 0
14 -13 26 -30z m1677 -2 c-3 -8 -6 -5 -6 6 -1 11 2 17 5 13 3 -3 4 -12 1 -19z
m-2117 8 c0 -3 -15 -14 -32 -26 l-33 -22 30 26 c31 27 35 29 35 22z m-470
-103 c0 -8 -9 0 -50 45 l-45 47 48 -45 c26 -24 47 -45 47 -47z m1580 74 c0 -2
-10 -12 -22 -23 l-23 -19 19 23 c18 21 26 27 26 19z m-560 -104 c0 -8 -9 0
-50 45 l-45 47 48 -45 c26 -24 47 -45 47 -47z m-640 72 c0 -2 -10 -9 -22 -15
-22 -11 -22 -10 -4 4 21 17 26 19 26 11z m2227 -37 c-3 -7 -5 -2 -5 12 0 14 2
19 5 13 2 -7 2 -19 0 -25z m-1117 -2 c0 -2 -8 -10 -17 -17 -16 -13 -17 -12 -4
4 13 16 21 21 21 13z m1139 -90 c2 -45 -6 -27 -12 29 -4 34 -3 42 3 25 4 -14
8 -38 9 -54z m-2556 15 c-2 -3 -16 8 -31 24 l-27 28 31 -24 c17 -13 30 -26 27
-28z m1377 44 c0 -2 -10 -9 -22 -15 -22 -11 -22 -10 -4 4 21 17 26 19 26 11z
m591 -12 c13 -16 12 -17 -3 -4 -17 13 -22 21 -14 21 2 0 10 -8 17 -17z m-936
-41 c-3 -3 -11 0 -18 7 -9 10 -8 11 6 5 10 -3 15 -9 12 -12z m72 -18 c-3 -3
-12 -4 -19 -1 -8 3 -5 6 6 6 11 1 17 -2 13 -5z m1460 -61 c-3 -10 -5 -4 -5 12
0 17 2 24 5 18 2 -7 2 -21 0 -30z"/>
<path d="M4903 7116 c-126 -31 -256 -130 -315 -242 -99 -185 -70 -426 70 -577
108 -116 224 -162 389 -155 88 3 106 7 173 40 93 44 152 94 202 172 135 209
97 492 -87 653 -115 102 -284 145 -432 109z m320 -160 c47 -20 69 -49 75 -102
9 -86 -44 -144 -133 -144 -42 0 -52 5 -86 39 -33 33 -39 45 -39 82 0 102 91
164 183 125z"/>
</g>
</svg>
